<svg width="275px" height="400px" viewBox="0 0 275 400" version="1.1" xmlns="http://www.w3.org/2000/svg" xmlns:xlink="http://www.w3.org/1999/xlink" fill="#4f46e5" fill-rule="nonzero">
  <polygon points="165 300 220 300 165 400 110 400"></polygon>
  <polygon points="220 200 275 200 220 300 165 300"></polygon>
  <polygon transform="translate(165, 250) scale(-1, 1) rotate(-180) translate(-165, -250) " points="165 200 220 200 165 300 110 300"></polygon>
  <polygon points="165 100 220 100 165 200 110 200"></polygon>
  <polygon points="110 200 165 200 110 300 55 300"></polygon>
  <polygon transform="translate(55, 250) scale(-1, 1) rotate(-180) translate(-55, -250) " points="55 200 110 200 55 300 0 300"></polygon>
  <polygon transform="translate(110, 150) scale(-1, 1) rotate(-180) translate(-110, -150) " points="110 100 165 100 110 200 55 200"></polygon>
  <polygon transform="translate(165, 50) scale(-1, 1) rotate(-180) translate(-165, -50) " points="165 0 220 0 165 100 110 100"></polygon>
  <polygon points="110 0 165 0 110 100 55 100"></polygon>
</svg>
